<svg width="800" height="800" viewBox="0 0 800 800" fill="none" xmlns="http://www.w3.org/2000/svg">
<path d="M455.844 399.993L688.428 167.409C703.849 151.988 703.849 126.987 688.428 111.566C673.006 96.1447 648.006 96.1447 632.584 111.566L400 344.15L167.416 111.566C151.995 96.1447 126.994 96.1447 111.573 111.566C96.1515 126.987 96.1515 151.988 111.573 167.409L344.157 399.993L111.573 632.577C96.1515 647.999 96.1515 672.999 111.573 688.421C119.257 696.105 129.363 700 139.468 700C149.574 700 159.679 696.158 167.364 688.421L399.948 455.837L632.532 688.421C640.216 696.105 650.322 700 660.427 700C670.532 700 680.638 696.158 688.322 688.421C703.744 672.999 703.744 647.999 688.322 632.577L455.738 399.993H455.844Z" fill="black"/>
</svg>
