<svg width="2500" height="2500" viewBox="0 0 2500 2500" fill="none" xmlns="http://www.w3.org/2000/svg">
<path d="M364.583 781.25H2135.42C2221.73 781.25 2291.67 711.314 2291.67 625C2291.67 538.686 2221.73 468.75 2135.42 468.75H364.583C278.269 468.75 208.333 538.686 208.333 625C208.333 711.314 278.269 781.25 364.583 781.25Z" fill="black"/>
<path d="M2135.42 1093.75H364.583C278.269 1093.75 208.333 1163.69 208.333 1250C208.333 1336.31 278.269 1406.25 364.583 1406.25H2135.42C2221.73 1406.25 2291.67 1336.31 2291.67 1250C2291.67 1163.69 2221.73 1093.75 2135.42 1093.75Z" fill="black"/>
<path d="M2135.42 1718.75H364.583C278.269 1718.75 208.333 1788.69 208.333 1875C208.333 1961.31 278.269 2031.25 364.583 2031.25H2135.42C2221.73 2031.25 2291.67 1961.31 2291.67 1875C2291.67 1788.69 2221.73 1718.75 2135.42 1718.75Z" fill="black"/>
</svg>
