<?xml version="1.0" encoding="utf-8"?>
<!-- Generator: Adobe Illustrator 27.4.1, SVG Export Plug-In . SVG Version: 6.00 Build 0)  -->
<svg version="1.1" id="W" xmlns="http://www.w3.org/2000/svg" xmlns:xlink="http://www.w3.org/1999/xlink" x="0px" y="0px"
	 viewBox="0 0 400 400" style="enable-background:new 0 0 400 400;" xml:space="preserve">
<g>
	<path d="M378.7,104.3L314,281.9l-0.2-0.6l-0.2-0.6l-27.7-76l-0.3-0.9l-0.2-0.7l42.7-117.2c4.7-12.4,14.5-17.6,24.4-17.6
		C369.2,68.3,386,83.3,378.7,104.3z"/>
</g>
<g>
	<path d="M45.7,124.2c-11,0-19.8-6.3-24-17.2c-3-8.6-2-17.1,2.8-23.7c5.1-7.2,13.9-11.6,23-11.6c11,0,19.8,6.3,24,17.2
		c3,8.6,2,17.1-2.8,23.7C63.6,119.7,54.8,124.2,45.7,124.2z"/>
	<path d="M47.5,71.1v1l0,0c10.8,0,19.4,6.2,23.5,16.9c3.7,10.9,0.6,18.7-2.7,23.3c-5,7-13.7,11.4-22.6,11.4
		c-10.8,0-19.4-6.2-23.5-16.9c-3.7-10.9-0.6-18.7,2.7-23.3c5-7,13.7-11.4,22.6-11.4L47.5,71.1 M47.5,71.1c-16.7,0-33.5,15-26.3,36
		c4.7,12.3,14.5,17.6,24.4,17.6c16.7,0,33.5-15,26.3-36C67.2,76.3,57.4,71.1,47.5,71.1L47.5,71.1z"/>
</g>
<g>
	<path d="M86.3,235.7c-11,0-19.8-6.3-24-17.2c-3-8.6-2-17.1,2.8-23.7c5.1-7.2,13.9-11.6,23-11.6c11,0,19.8,6.3,24,17.2
		c3,8.6,2,17.1-2.8,23.7C104.2,231.3,95.4,235.7,86.3,235.7z"/>
	<path d="M88.1,182.7v1l0,0c10.8,0,19.4,6.2,23.5,16.9c3.7,10.9,0.6,18.7-2.7,23.3c-5,7-13.7,11.4-22.6,11.4
		c-10.8,0-19.4-6.2-23.5-16.9c-3.7-10.9-0.6-18.7,2.7-23.3c5-7,13.7-11.4,22.6-11.4V182.7 M88.1,182.7c-16.7,0-33.5,15-26.3,36
		c4.7,12.3,14.5,17.6,24.4,17.6c16.7,0,33.5-15,26.3-36C107.8,187.9,98,182.7,88.1,182.7L88.1,182.7z"/>
</g>
<g>
	<path d="M126.9,347.3c-11,0-19.8-6.3-24-17.2c-3-8.6-2-17.1,2.8-23.7c5.1-7.2,13.9-11.6,23-11.6c11,0,19.8,6.3,24,17.2
		c3,8.6,2,17.1-2.8,23.7C144.8,342.9,136,347.3,126.9,347.3z"/>
	<path d="M128.7,294.2v1l0,0c10.8,0,19.4,6.2,23.5,16.9c3.7,10.9,0.6,18.7-2.7,23.3c-5,7-13.7,11.4-22.6,11.4
		c-10.8,0-19.4-6.2-23.5-16.9c-3.7-10.9-0.6-18.7,2.7-23.3c5-7,13.7-11.4,22.6-11.4V294.2 M128.7,294.2c-16.7,0-33.5,15-26.3,36
		c4.7,12.3,14.5,17.6,24.4,17.6c16.7,0,33.5-15,26.3-36C148.4,299.5,138.6,294.2,128.7,294.2L128.7,294.2z"/>
</g>
<g>
	<path d="M271.5,344.5c-11.1,0-21.1-7-24.9-17.4L165.4,104c-3-8.6-2-17,2.8-23.7c5.1-7.2,13.9-11.6,23.1-11.6
		c11,0,19.7,6.3,23.9,17.2L296.4,309c5,13.7-2.1,29-15.8,33.9C277.6,344,274.6,344.5,271.5,344.5z"/>
	<path d="M191.2,68.1v1c10.8,0,19.3,6.2,23.5,16.9l81.2,223.1c2.4,6.5,2.1,13.6-0.9,19.9c-2.9,6.3-8.1,11.1-14.7,13.4
		c-2.9,1-5.9,1.6-8.9,1.6c-10.9,0-20.7-6.9-24.4-17.1l-81.2-223.1c-3.7-10.8-0.6-18.6,2.7-23.3c5-7,13.7-11.4,22.7-11.4V68.1
		 M191.2,68.1c-16.7,0-33.6,15-26.3,36l81.2,223.1c4,11,14.3,17.8,25.4,17.8c3.1,0,6.2-0.5,9.2-1.6c14-5.1,21.2-20.6,16.1-34.6
		L215.6,85.6C210.9,73.3,201.1,68.1,191.2,68.1L191.2,68.1z"/>
</g>
</svg>
